<?xml version="1.0" encoding="UTF-8"?>
<!DOCTYPE svg PUBLIC "-//W3C//DTD SVG 1.0//EN" "http://www.w3.org/TR/2001/REC-SVG-20010904/DTD/svg10.dtd">
<!-- Creator: CorelDRAW 2017 -->
<svg xmlns="http://www.w3.org/2000/svg" xml:space="preserve" width="76.9936mm" height="26.7228mm" version="1.0" style="shape-rendering:geometricPrecision; text-rendering:geometricPrecision; image-rendering:optimizeQuality; fill-rule:evenodd; clip-rule:evenodd"
viewBox="0 0 7699.36 2672.28"
 xmlns:xlink="http://www.w3.org/1999/xlink">
 <defs>
  <style type="text/css">
   <![CDATA[
    .fil0 {fill:#010101}
   ]]>
  </style>
 </defs>
 <g id="Capa_x0020_1">
  <metadata id="CorelCorpID_0Corel-Layer"/>
  <path class="fil0" d="M4686.86 2008.21l335.85 -1.03 -0.72 335.25 -330.78 -0.59 -4.35 -333.63zm0 0l-329.68 -1.82 -4.56 -333.01 336.2 -2.1 -1.96 336.93zm-3687.46 -668.77l9.98 320.12c55.48,1.27 112.19,1.76 169.64,1.56 26.34,-0.1 59.54,-1.97 84.81,-1l69.11 13.99c27.73,71.77 11.74,226.21 9.92,323.23 96.03,-1.9 252.24,-17.94 323.06,11.91 22.39,46.94 13.59,100.97 13.64,152.84 0.05,61.14 2.79,116.04 -5.48,176.62l-340.56 9.54 -5.31 -335 -325.98 -3.37 -9.39 -333.74 -323.64 -1.59c-25.24,-88.83 -16.35,-252.89 -5.87,-344.23l336.07 9.12zm3017.57 -3.47l335.93 1.52 0.58 334.17 -336.92 -3.37 0.41 -332.32zm-3350.16 -673.41c455.07,8.16 307.88,54.71 339.46,-334.29l331.2 -8.41 0.37 -325.94 -334.42 4.95 0.15 328.6 -334.78 5.5 -0.55 330.26 -335.21 2.82 0.41 331.45 -335.42 3.06 -0.9 666.19 332.99 0.72 6.83 335.11 329.91 0.51 4.06 335.68 331 -0.96 2.21 335.98 1336.71 -2.7 0 -330.58 334.96 -4 -0.73 -331.98 334.94 -2.17 0.06 -332.24 672.24 3.54 5.03 332.46 328.8 2.2 5.99 333.12 329.96 1.93 1.95 333.96 1338.26 1.04 -0.98 -333.63 335.06 -1.56 1.28 -333.25 334.99 -8.35 -1.01 -327.01 335.82 -6.95 1.08 -664.61 333.94 -2.91 1.13 -331.24 333.57 -3.8 3 -331.43 332.07 -1.91 -1.33 -333.14 -331.94 5.65 0.84 329.49 -334.57 4.6 -0.84 331.78c-422.75,-5.8 -331.73,-69.61 -335.4,333.53l-6031.11 -4.99 -1.08 -336.08z"/>
 </g>
</svg>
