<?xml version="1.0" encoding="UTF-8"?>
<!DOCTYPE svg PUBLIC "-//W3C//DTD SVG 1.0//EN" "http://www.w3.org/TR/2001/REC-SVG-20010904/DTD/svg10.dtd">
<!-- Creator: CorelDRAW 2017 -->
<svg xmlns="http://www.w3.org/2000/svg" xml:space="preserve" width="87.577mm" height="16.9332mm" version="1.0" style="shape-rendering:geometricPrecision; text-rendering:geometricPrecision; image-rendering:optimizeQuality; fill-rule:evenodd; clip-rule:evenodd"
viewBox="0 0 8757.7 1693.32"
 xmlns:xlink="http://www.w3.org/1999/xlink">
 <defs>
  <style type="text/css">
   <![CDATA[
    .fil0 {fill:#1A1A1A}
   ]]>
  </style>
 </defs>
 <g id="Capa_x0020_1">
  <metadata id="CorelCorpID_0Corel-Layer"/>
  <path class="fil0" d="M5775.89 683.53l309.79 -6.87 20.67 -349.06 349.93 5.13 10.87 344.17 289.78 3.7c45.22,46.13 17.86,-35.93 35.15,77.28l-2.48 240.67c255.99,-0.22 293.39,-38.19 329.96,48.91l-3.69 299.46 -312.39 7.36c-38,-44.89 -30.71,76.56 -37.05,-83.35l-0.33 -248.51 -321.82 11.75 -2.39 313.6 -312.38 7.35c-38.08,-44.96 -30.71,76.42 -37.13,-83.42l-0.24 -247.15c-59.69,0.03 -124.2,3.01 -182.93,2.02l-137.01 -30.72 3.69 -312.32zm0 0l-350.47 -6.67 11.57 -341.77 337.73 3.81 1.17 344.63zm-4749.93 -1.54l305.02 -0.36 12.22 -331.37c97.04,-37.25 246.68,-37.41 348.07,-0.55l8.74 331.51 307.3 -7.06c30.87,38.95 14.37,-55.31 35.63,87.97l-1.96 239.17c106.59,-0.11 224.6,-14.83 320.71,21.78 11.43,82.99 43.83,290.86 -29.11,327.11l-284.67 0.32c-41.71,-35.3 -39.16,-15.21 -38.93,-153.63 0.12,-54.92 1.5,-110.68 -1.08,-165.72l-313.12 0.36c0.7,61.53 4.78,133.28 3.28,193.2 -2.41,99.06 21.1,96.15 -39.53,126.24l-284.67 0.31c-62.45,-52.82 -38.06,-170.76 -37.03,-318.29l-324.38 -8.04c-38.07,-103.81 -22.88,-225.65 -24.49,-342.45l-288.91 -4.49c-41.42,-34.98 -39.44,-15.83 -39.12,-154.47 0.13,-61.57 1.12,-112.06 9.22,-172.5 97.04,-37.25 246.68,-37.41 348.08,-0.55l8.73 331.51zm3030.71 -340.43l651.44 3.78c28.66,205.5 -32.97,483.44 27.74,669.85l319.21 0.46 3.07 332.75 333.01 11.31 7.88 328.67 2354.02 -2.7 -0.72 -333.18 334.07 -11.64 -0.15 -329.07 332.34 -0.37 6.95 -333.66 334.6 -11.69 -1.75 -666.07 -8760.81 10.37 5.51 672.9 332.81 0.78 -0.2 331.7 333.68 8.09 8.58 329.91 334.64 21.67 18.74 317.9 2337.51 -2.25 -0.9 -330.69 336.68 -7.67 10.43 -333.64 326.53 -13.88 15.09 -663.63z"/>
 </g>
</svg>
